<svg xmlns="http://www.w3.org/2000/svg" version="1.1" xmlns:xlink="http://www.w3.org/1999/xlink" xmlns:svgjs="http://svgjs.dev/svgjs" width="1440" height="250" preserveAspectRatio="none" viewBox="0 0 1440 250"><g mask="url(&quot;#SvgjsMask1003&quot;)" fill="none"><rect width="1440" height="250" x="0" y="0" fill="#0e2a47"></rect><path d="M12 250L262 0L382 0L132 250z" fill="url(&quot;#SvgjsLinearGradient1004&quot;)"></path><path d="M273.6 250L523.6 0L796.6 0L546.6 250z" fill="url(&quot;#SvgjsLinearGradient1004&quot;)"></path><path d="M493.20000000000005 250L743.2 0L810.7 0L560.7 250z" fill="url(&quot;#SvgjsLinearGradient1004&quot;)"></path><path d="M742.8000000000001 250L992.8000000000001 0L1036.3000000000002 0L786.3000000000001 250z" fill="url(&quot;#SvgjsLinearGradient1004&quot;)"></path><path d="M1433 250L1183 0L1076.5 0L1326.5 250z" fill="url(&quot;#SvgjsLinearGradient1005&quot;)"></path><path d="M1199.4 250L949.4000000000001 0L736.4000000000001 0L986.4000000000001 250z" fill="url(&quot;#SvgjsLinearGradient1005&quot;)"></path><path d="M935.8 250L685.8 0L453.29999999999995 0L703.3 250z" fill="url(&quot;#SvgjsLinearGradient1005&quot;)"></path><path d="M723.1999999999999 250L473.19999999999993 0L332.19999999999993 0L582.1999999999999 250z" fill="url(&quot;#SvgjsLinearGradient1005&quot;)"></path><path d="M1238.915969467293 250L1440 48.915969467293166L1440 250z" fill="url(&quot;#SvgjsLinearGradient1004&quot;)"></path><path d="M0 250L201.08403053270683 250L 0 48.915969467293166z" fill="url(&quot;#SvgjsLinearGradient1005&quot;)"></path></g><defs><mask id="SvgjsMask1003"><rect width="1440" height="250" fill="#ffffff"></rect></mask><linearGradient x1="0%" y1="100%" x2="100%" y2="0%" id="SvgjsLinearGradient1004"><stop stop-color="rgba(15, 70, 185, 0.2)" offset="0"></stop><stop stop-opacity="0" stop-color="rgba(15, 70, 185, 0.2)" offset="0.66"></stop></linearGradient><linearGradient x1="100%" y1="100%" x2="0%" y2="0%" id="SvgjsLinearGradient1005"><stop stop-color="rgba(15, 70, 185, 0.2)" offset="0"></stop><stop stop-opacity="0" stop-color="rgba(15, 70, 185, 0.2)" offset="0.66"></stop></linearGradient></defs></svg>