<svg xmlns="http://www.w3.org/2000/svg" xmlns:xlink="http://www.w3.org/1999/xlink" version="1.1" x="0px" y="0px" viewBox="0 0 96 120" style="enable-background:new 0 0 96 96;" xml:space="preserve"><style type="text/css">
	.st0{fill-rule:evenodd;clip-rule:evenodd;}
</style><path d="M27.393,66.185l4.462,4.462c0.494,0.494,1.273,0.556,1.839,0.146l4.842-3.505c0.992,0.522,2.028,0.952,3.096,1.284  l0.944,5.901c0.11,0.689,0.705,1.197,1.404,1.197h6.31c0.698,0,1.293-0.507,1.404-1.197l0.945-5.901  c1.068-0.333,2.104-0.762,3.096-1.284l4.842,3.506c0.565,0.409,1.345,0.347,1.839-0.146l4.462-4.462  c0.494-0.494,0.556-1.273,0.146-1.839l-3.505-4.842c0.522-0.992,0.952-2.028,1.284-3.096l5.901-0.944  c0.689-0.11,1.197-0.705,1.197-1.404v-6.31c0-0.698-0.507-1.293-1.197-1.404L64.8,45.403c-0.333-1.068-0.762-2.104-1.284-3.096  l3.506-4.842c0.409-0.566,0.348-1.345-0.146-1.839l-4.462-4.462c-0.494-0.494-1.273-0.556-1.839-0.146l-4.842,3.505  c-0.992-0.522-2.028-0.952-3.096-1.284l-0.944-5.901c-0.11-0.69-0.705-1.197-1.404-1.197h-6.31c-0.698,0-1.293,0.507-1.404,1.197  l-0.944,5.901c-1.068,0.332-2.104,0.762-3.096,1.284l-4.841-3.505c-0.566-0.41-1.345-0.348-1.839,0.146l-4.462,4.462  c-0.494,0.494-0.556,1.273-0.146,1.839l3.506,4.842c-0.522,0.992-0.951,2.028-1.284,3.096l-5.901,0.945  c-0.689,0.11-1.197,0.705-1.197,1.404v6.31c0,0.698,0.507,1.293,1.197,1.404l5.901,0.945c0.333,1.068,0.762,2.104,1.284,3.096  l-3.506,4.842C26.837,64.912,26.899,65.691,27.393,66.185z M33.587,60.437c0.332-0.459,0.36-1.071,0.071-1.559  c-0.756-1.275-1.326-2.649-1.693-4.082c-0.14-0.549-0.593-0.962-1.152-1.051l-5.599-0.896v-3.886l5.599-0.896  c0.559-0.09,1.012-0.503,1.152-1.051c0.366-1.433,0.936-2.806,1.693-4.082c0.289-0.487,0.261-1.1-0.071-1.559L30.26,36.78  l2.748-2.748l4.594,3.327c0.459,0.332,1.071,0.36,1.559,0.071c1.276-0.757,2.65-1.326,4.082-1.693  c0.549-0.14,0.962-0.593,1.051-1.152l0.896-5.599h3.886l0.896,5.599c0.09,0.559,0.503,1.012,1.051,1.152  c1.432,0.366,2.805,0.936,4.082,1.693c0.487,0.289,1.1,0.261,1.559-0.071l4.595-3.327l2.748,2.748l-3.327,4.595  c-0.332,0.459-0.36,1.071-0.071,1.559c0.757,1.276,1.326,2.649,1.693,4.082c0.14,0.549,0.593,0.962,1.152,1.051l5.599,0.896v3.886  l-5.599,0.896c-0.559,0.09-1.012,0.503-1.152,1.051c-0.366,1.432-0.936,2.805-1.693,4.082c-0.289,0.487-0.261,1.1,0.071,1.559  l3.327,4.595L61.26,67.78l-4.595-3.327c-0.459-0.332-1.071-0.36-1.559-0.071c-1.275,0.757-2.649,1.326-4.082,1.693  c-0.549,0.14-0.962,0.593-1.051,1.152l-0.896,5.599h-3.886l-0.896-5.599c-0.09-0.559-0.503-1.012-1.051-1.152  c-1.432-0.366-2.805-0.936-4.082-1.693c-0.487-0.289-1.1-0.261-1.559,0.071l-4.595,3.327l-2.748-2.748L33.587,60.437z   M47.134,61.651c5.925,0,10.745-4.82,10.745-10.745c0-5.925-4.82-10.745-10.745-10.745s-10.745,4.82-10.745,10.745  C36.389,56.831,41.209,61.651,47.134,61.651z M47.134,43.004c4.357,0,7.902,3.545,7.902,7.902c0,4.357-3.545,7.902-7.902,7.902  s-7.902-3.545-7.902-7.902C39.232,46.549,42.777,43.004,47.134,43.004z M85.417,50.902c0-8.769-2.885-17.019-8.342-23.859  C71.921,20.584,64.74,15.919,56.793,13.85V5.641c0-1.724-1.403-3.127-3.127-3.127H40.601c-1.724,0-3.127,1.403-3.127,3.127v8.216  c-0.05,0.008-0.099,0.018-0.149,0.031C20.56,18.319,8.851,33.54,8.851,50.902c0,11.446,5.063,22.201,13.89,29.507  c0.265,0.219,0.586,0.326,0.905,0.326c0.409,0,0.815-0.176,1.096-0.515c0.5-0.605,0.416-1.501-0.189-2.001  c-8.172-6.763-12.859-16.72-12.859-27.316c0-15.873,10.571-29.811,25.781-34.107v1.911c0,1.724,1.403,3.127,3.127,3.127h13.065  c1.724,0,3.127-1.403,3.127-3.127v-1.912c15.248,4.293,25.781,18.126,25.781,34.108c0,19.542-15.898,35.44-35.44,35.44H5.475  c-0.785,0-1.421,0.636-1.421,1.421s0.636,1.421,1.421,1.421h41.659c10.226,0,19.839-3.982,27.07-11.213S85.417,61.128,85.417,50.902  z M53.951,18.707c0,0.154-0.13,0.284-0.284,0.284H40.601c-0.154,0-0.284-0.13-0.284-0.284V5.641c0-0.154,0.13-0.284,0.284-0.284  h13.065c0.154,0,0.284,0.13,0.284,0.284V18.707z M91.946,87.764c0,0.438-0.202,0.851-0.547,1.12l-5.506,4.3  c-0.26,0.203-0.568,0.301-0.874,0.301c-0.423,0-0.841-0.188-1.121-0.547c-0.483-0.619-0.373-1.512,0.245-1.995l2.252-1.758H71.877  c-0.785,0-1.421-0.636-1.421-1.421s0.636-1.421,1.421-1.421h14.519l-2.252-1.758c-0.619-0.483-0.729-1.376-0.245-1.995  c0.483-0.619,1.376-0.729,1.995-0.245l5.506,4.3C91.745,86.913,91.946,87.326,91.946,87.764z M51.714,10.542l-4.087,5.052  c-0.253,0.313-0.628,0.504-1.03,0.525c-0.025,0.001-0.05,0.002-0.075,0.002c-0.376,0-0.738-0.149-1.005-0.416l-2.864-2.864  c-0.555-0.555-0.555-1.455,0-2.01c0.555-0.555,1.455-0.555,2.01,0l1.747,1.747l3.093-3.824c0.494-0.61,1.389-0.705,1.999-0.211  C52.114,9.036,52.208,9.931,51.714,10.542z"/><text x="0" y="111" fill="#000000" font-size="5px" font-weight="bold" font-family="'Helvetica Neue', Helvetica, Arial-Unicode, Arial, Sans-serif">Created by Eko Purnomo</text><text x="0" y="116" fill="#000000" font-size="5px" font-weight="bold" font-family="'Helvetica Neue', Helvetica, Arial-Unicode, Arial, Sans-serif">from the Noun Project</text></svg>